# xmcd
#
# Track frame offsets:
#	150
#	19348
#	41506
#	60378
#	77688
#	94268
#	112354
#	132735
#	149590
#	171250
#	190086
#	208226
#	222852
#	240476
#	258505
#	274779
#	292163
#	311352
#
# Disc length: 4416 seconds
#
# Revision: 1
# Processed by: cddbd v1.5.2PL0 Copyright (c) Steve Scherf et al.
# Submitted via: audiograbber 1.83.01
#
DISCID=1e113e12
DTITLE=Various Artist - EZH-97
DYEAR=1900
DGENRE=
TTITLE0=Pink ft Nate Reuss - Just Give Me A Reason
TTITLE1=Justin Timberlake - Mirrors
TTITLE2=The Saturdays ft Sean Paul - What About Us
TTITLE3=Bruno Mars - When I Was Your Man
TTITLE4=Nicole Scherzinger - Boomerang
TTITLE5=Maroon 5 - One More Night
TTITLE6=Ben Howard - Only Love
TTITLE7=Little Mix - Change Your Life
TTITLE8=Mumford and Sons - I Will Wait
TTITLE9=Daft Punk ft Pharrell Williams - Get Lucky
TTITLE10=Calvin Harris ft Ellie Goulding - I Need Your Love
TTITLE11=Duke Dumont ft A'M'E - Need You (100%)
TTITLE12=Nelly - Hey Porsche
TTITLE13=Little Mix ft Missy Elliot - How Ya Doin'
TTITLE14=Imagine Dragons - Radioactive
TTITLE15=Bridgit Mendler - Ready Or Not
TTITLE16=Taylor Swift - 22
TTITLE17=PJ and Duncan - Let's Get Ready To Rhumble
EXTD=
EXTT0=
EXTT1=
EXTT2=
EXTT3=
EXTT4=
EXTT5=
EXTT6=
EXTT7=
EXTT8=
EXTT9=
EXTT10=
EXTT11=
EXTT12=
EXTT13=
EXTT14=
EXTT15=
EXTT16=
EXTT17=
PLAYORDER=
